<svg width="22" height="20" viewBox="0 0 22 20" fill="none" xmlns="http://www.w3.org/2000/svg">
<path d="M12.3333 16.6667H1.66659C0.933252 16.6667 0.333252 17.2667 0.333252 18.0001C0.333252 18.7334 0.933252 19.3334 1.66659 19.3334H12.3333C13.0666 19.3334 13.6666 18.7334 13.6666 18.0001C13.6666 17.2667 13.0666 16.6667 12.3333 16.6667ZM20.3333 6.00008H1.66659C0.933252 6.00008 0.333252 6.60008 0.333252 7.33342C0.333252 8.06675 0.933252 8.66675 1.66659 8.66675H20.3333C21.0666 8.66675 21.6666 8.06675 21.6666 7.33342C21.6666 6.60008 21.0666 6.00008 20.3333 6.00008ZM1.66659 14.0001H20.3333C21.0666 14.0001 21.6666 13.4001 21.6666 12.6667C21.6666 11.9334 21.0666 11.3334 20.3333 11.3334H1.66659C0.933252 11.3334 0.333252 11.9334 0.333252 12.6667C0.333252 13.4001 0.933252 14.0001 1.66659 14.0001ZM0.333252 2.00008C0.333252 2.73341 0.933252 3.33341 1.66659 3.33341H20.3333C21.0666 3.33341 21.6666 2.73341 21.6666 2.00008C21.6666 1.26675 21.0666 0.666748 20.3333 0.666748H1.66659C0.933252 0.666748 0.333252 1.26675 0.333252 2.00008Z" fill="black" fill-opacity="0.54"/>
</svg>